<mxfile host="app.diagrams.net" modified="2024-03-27T14:45:48.077Z" agent="Mozilla/5.0 (Windows NT 10.0; Win64; x64) AppleWebKit/537.36 (KHTML, like Gecko) Chrome/123.0.0.0 Safari/537.36" version="24.2.0" etag="DTpPK8LggGVPupaoQQbJ" type="github">
  <diagram name="Page-1" id="FAiPEtcM03CE0Y_hnUNB">
    <mxGraphModel>
      <root>
        <mxCell id="0" />
        <mxCell id="1" parent="0" />
      </root>
    </mxGraphModel>
  </diagram>
</mxfile>
